<svg width="57" height="52" viewBox="0 0 57 52" fill="none" xmlns="http://www.w3.org/2000/svg">
<path d="M56.0806 13.5134C55.7127 12.3784 54.9269 11.4617 53.8668 10.9191L35.3641 1.45889C33.1814 0.342616 30.4874 1.21568 29.3649 3.39833L27.9867 6.08612C27.5627 5.76807 27.0762 5.5311 26.5462 5.40637C26.0099 5.27542 25.4611 5.26294 24.9123 5.36272L3.5098 9.26032C1.35209 9.6532 -0.0822287 11.7236 0.310649 13.8813L6.65283 48.7165C6.93346 50.2693 8.10586 51.504 9.63995 51.872C10.1763 52.0029 10.725 52.0154 11.2738 51.9156L31.585 48.2176L34.1294 49.5209C34.4536 49.6831 34.7904 49.8078 35.1334 49.8889C35.9191 50.076 36.7485 50.0448 37.5343 49.7891C38.6693 49.4212 39.5922 48.6354 40.1285 47.5753L55.8124 16.9246C56.355 15.8644 56.4485 14.6546 56.0806 13.5134ZM54.2846 16.1388L38.6007 46.7895C38.2702 47.4443 37.7027 47.9245 37.0042 48.149C36.3058 48.3735 35.5637 48.3111 34.9089 47.9806L33.9859 47.5067C34.4723 47.2198 34.9026 46.8394 35.2331 46.3592C35.838 45.4862 36.0626 44.4322 35.8755 43.3846L34.3102 34.7911C33.83 34.5292 33.2313 34.1987 32.5516 33.8245V34.7225L34.1855 43.6901C34.2915 44.2826 34.1667 44.8812 33.8237 45.3801C33.4808 45.8728 32.9632 46.2095 32.3708 46.3156L10.9683 50.2132C9.76468 50.4314 8.56109 49.5833 8.34282 48.3984L2.00066 13.5633C1.77616 12.341 2.5931 11.1623 3.81539 10.9378L25.2179 7.04025C25.5297 6.98412 25.8415 6.99036 26.147 7.06519C26.596 7.17121 26.9827 7.40818 27.282 7.73246C27.2945 8.02556 27.4504 8.29995 27.7248 8.44338C27.7747 8.57434 27.8184 8.71154 27.8433 8.85497L29.1466 16.0203C29.8326 16.2885 30.4812 16.6439 31.0799 17.0618L29.5333 8.5494C29.4647 8.18147 29.3462 7.83224 29.184 7.50796L30.8928 4.17162C31.585 2.82461 33.2438 2.2883 34.5846 2.97427L53.0872 12.4345C53.7358 12.765 54.2222 13.3325 54.4467 14.031C54.6775 14.7294 54.6151 15.4778 54.2846 16.1263V16.1388Z" fill="white"/>
<path d="M42.5855 32.5148C42.1303 31.8787 41.6501 31.6854 41.1762 31.6854C40.5151 31.6854 39.879 32.0596 39.3614 32.0783C39.2679 32.0783 39.1681 32.0783 39.0558 32.0783C38.8937 32.0783 38.7191 32.0783 38.532 32.0783C38.4385 32.0783 38.3387 32.0783 38.2452 32.0783L37.9022 32.0908C38.0082 32.0908 38.1142 32.0845 38.214 32.0845C37.9708 32.0845 37.8086 32.0347 37.4843 31.8476C37.4843 31.8476 35.6073 30.7001 33.3061 29.3157C33.0692 29.1723 32.8322 29.0288 32.589 28.8854C32.7698 28.6048 32.9257 28.3117 33.0629 28.0123C33.5618 26.9522 33.8237 25.7985 33.8299 24.6261C33.8299 24.464 33.8175 24.3018 33.805 24.1334C35.7445 23.0671 37.2474 22.2439 37.2474 22.2439C37.5155 22.0942 37.6714 22.0381 37.8648 22.0381C37.9271 22.0381 37.9895 22.0381 38.0581 22.0506H38.0269C38.4821 22.1067 38.9124 22.1379 39.2305 22.1878C39.8291 22.2751 40.6336 22.8862 41.3882 22.8862C41.8309 22.8862 42.255 22.6804 42.6229 22.0443C43.6207 20.3169 41.0826 19.263 40.4839 18.2278C40.0973 17.5605 40.1097 16.1886 39.6296 15.303C39.5984 15.2407 39.5672 15.1846 39.5298 15.1347C39.2616 14.7356 38.8688 14.4736 38.2514 14.4736C36.2621 14.4736 36.7859 16.4505 36.4304 17.3423C36.3119 17.6354 36.1311 18.0282 35.9503 18.4523L35.9627 18.4274C35.8504 18.7017 35.7444 18.8327 35.3952 19.0323C35.3952 19.0323 34.0545 19.8492 32.7573 20.635C32.3832 19.9864 31.9279 19.4002 31.4041 18.8888C30.8116 18.3089 30.1319 17.8224 29.396 17.4545C28.2798 16.887 27.0325 16.5815 25.7354 16.5752C22.8356 16.5752 20.1541 18.128 18.7197 20.635C17.4226 19.8492 16.0819 19.0323 16.0819 19.0323C15.7389 18.8265 15.6266 18.7017 15.5144 18.4274V18.4523C15.346 18.0282 15.1651 17.6416 15.0466 17.3485C14.6912 16.4567 15.2213 14.4799 13.2257 14.4799C11.2364 14.4799 11.5856 17.2051 10.9869 18.2403C10.6003 18.9075 9.40915 19.5873 8.87907 20.4416C8.84166 20.4978 8.81049 20.5539 8.77931 20.6162C8.56728 21.0465 8.53609 21.5205 8.8479 22.0568C9.21583 22.6929 9.63988 22.8987 10.0826 22.8987C10.8435 22.8987 11.6417 22.2875 12.2404 22.2002C12.5522 22.1566 12.97 22.1192 13.419 22.063H13.4128C13.4876 22.0568 13.55 22.0506 13.6123 22.0506C13.7994 22.0506 13.9615 22.1067 14.2235 22.2564C14.2235 22.2564 15.7264 23.0795 17.6596 24.1459C17.6471 24.3081 17.6409 24.4702 17.6409 24.6386C17.6409 26.1477 18.0774 27.6257 18.8819 28.9041C16.2752 30.4756 13.9927 31.86 13.9927 31.86C13.6684 32.0409 13.5063 32.0908 13.2694 32.097C13.3691 32.097 13.4689 32.097 13.5687 32.1032L13.2195 32.0908C13.1072 32.0908 13.0012 32.0908 12.8952 32.0908C12.7205 32.0908 12.5584 32.0908 12.4088 32.0908C12.3027 32.0908 12.2092 32.0908 12.1156 32.0908C11.598 32.0721 10.962 31.6979 10.3009 31.6979C9.83322 31.6979 9.35303 31.885 8.89156 32.5273C7.78776 34.0676 10.0889 34.7162 10.5566 35.5269C11.0056 36.3064 10.4818 38.4766 12.1156 38.4766C12.178 38.4766 12.2528 38.4766 12.3214 38.4641C14.2048 38.277 13.893 36.6744 14.3108 35.8886C14.448 35.6329 14.66 35.2899 14.8658 34.9158L14.8783 34.8908C15.003 34.6788 15.1215 34.5603 15.4458 34.3732C15.4458 34.3732 17.6035 33.1946 20.1291 31.7977V35.3461C20.7902 35.5955 21.4699 35.8013 22.1683 35.9572V34.024C22.4801 34.0988 22.8169 34.1737 23.1848 34.2423V36.1568C23.8583 36.269 24.5381 36.3438 25.2241 36.3688V34.473C25.3924 34.4792 25.5608 34.4855 25.7292 34.4855C25.8976 34.4855 26.0659 34.4855 26.2343 34.473V36.3563C26.9203 36.3376 27.6 36.269 28.2735 36.163V34.2423C28.6352 34.1737 28.9782 34.0988 29.29 34.024V35.9572C29.9885 35.8013 30.6744 35.5893 31.3292 35.3398V31.7977C31.5787 31.9349 31.8281 32.0721 32.0713 32.2093C32.776 32.6021 33.4371 32.9638 34.0108 33.2756C35.2082 33.9367 36.0126 34.3732 36.0126 34.3732C36.3556 34.579 36.4741 34.6913 36.605 34.9345C36.8108 35.2962 37.0166 35.6329 37.1476 35.8886C37.5654 36.6744 37.2536 38.277 39.1369 38.4641C39.2118 38.4704 39.2804 38.4766 39.3427 38.4766C40.9766 38.4766 40.4528 36.3064 40.9018 35.5269C41.3695 34.7162 43.6706 34.0676 42.5668 32.5273L42.5855 32.5148ZM22.343 27.9001C22.1621 27.9001 21.9813 27.8751 21.8004 27.8252C20.6904 27.5259 20.3723 26.4845 20.6717 25.3744C20.9211 24.4515 21.7817 23.8466 22.7109 23.8466C22.7109 23.8466 22.7296 23.8466 22.7421 23.8466C22.9167 23.8466 23.0913 23.8715 23.2659 23.9214C24.3759 24.2207 24.6503 25.2559 24.3572 26.3597C24.1078 27.2827 23.2721 27.8938 22.3492 27.8938L22.343 27.9001ZM27.2321 30.9433C27.1572 31.0369 26.4526 31.0868 25.7479 31.0868C25.0432 31.0868 24.3385 31.0369 24.2637 30.9433C24.114 30.75 25.4548 29.0226 25.7479 29.0226C26.041 29.0226 27.3817 30.75 27.2321 30.9433ZM29.6891 27.8315C29.5083 27.8814 29.3274 27.9063 29.1466 27.9063C28.2299 27.9063 27.388 27.2952 27.1386 26.3722C26.8392 25.2684 27.1198 24.2332 28.2299 23.9339C28.4045 23.8902 28.5791 23.8653 28.7537 23.859C28.7537 23.859 28.7724 23.859 28.7849 23.859C29.7079 23.859 30.5747 24.4577 30.8241 25.3869C31.1234 26.4907 30.8054 27.5384 29.6954 27.8377L29.6891 27.8315Z" fill="white"/>
<path d="M14.866 34.9293C14.866 34.9293 14.8787 34.9039 14.8914 34.8848C14.8914 34.8911 14.885 34.8975 14.8787 34.9102L14.866 34.9293Z" fill="white"/>
<path d="M38.2514 32.0846C38.2514 32.0846 38.2327 32.0846 38.2203 32.0846C38.1142 32.0846 38.0145 32.0846 37.9084 32.0908L38.2514 32.0784V32.0846Z" fill="white"/>
</svg>
