<svg width="218" height="36" viewBox="0 0 218 36" fill="none" xmlns="http://www.w3.org/2000/svg">
<g clip-path="url(#clip0_364_1670)">
<path d="M48.5472 22.1947C47.4389 23.3006 45.7727 23.9011 44.2973 23.9011C40.1208 23.9011 38.5024 20.9863 38.4803 18.1923C38.4547 15.3689 40.2163 12.3369 44.2973 12.3369C45.7727 12.3369 47.2627 12.8422 48.3784 13.9225L50.507 11.8755C48.7638 10.1691 46.5948 9.30119 44.2973 9.30119C38.1867 9.30119 35.3131 13.7797 35.3388 18.1923C35.3645 22.5792 38.0216 26.8929 44.2973 26.8929C46.7342 26.8929 48.9803 26.0983 50.7199 24.3845L48.5472 22.1947Z" fill="white"/>
<path d="M57.0176 23.5679V9.64175H53.8284V26.5121H65.7119V23.5679H57.0176Z" fill="white"/>
<path d="M80.1939 9.66372V19.3238C80.1939 22.213 78.7038 23.9744 76.0651 23.9744C73.4263 23.9744 71.6941 22.3631 71.6941 19.3238V9.66372H68.5378V19.3238C68.5378 24.4101 71.9877 26.8673 76.0431 26.8673C80.0984 26.8673 83.3611 24.3076 83.3611 19.3238V9.66372H80.1975H80.1939Z" fill="white"/>
<path d="M99.5827 17.7858C101.154 17.0827 101.781 15.8303 101.781 14.534C101.781 11.1358 99.2928 9.64175 95.9641 9.64175H87.9487V26.5121H95.9641C99.4653 26.5121 102.288 25.3 102.288 21.5502C102.288 20.4883 101.568 18.3937 99.5864 17.7894L99.5827 17.7858ZM91.0829 12.531H95.9641C97.9899 12.531 98.6175 13.8309 98.6175 14.6036C98.6175 15.574 97.9679 16.4089 95.9641 16.4089H91.0829V12.5346V12.531ZM95.9641 23.5423H91.0829V19.2066H95.9641C97.2633 19.2066 99.1277 20.0012 99.1277 21.5172C99.1277 23.0333 97.2633 23.5386 95.9641 23.5386V23.5423Z" fill="white"/>
<path d="M113.298 16.1965C111.261 15.9585 109.529 15.5484 109.529 14.0763C109.529 12.8239 110.663 11.8389 113.03 11.8389C114.861 11.8389 116.454 12.7507 117.034 13.7101L119.573 12.4138C118.289 9.80654 115.566 9.06683 112.931 9.06683C109.818 9.09247 106.391 10.5096 106.391 13.9811C106.391 17.7638 109.576 18.6756 113.033 19.0931C115.276 19.3274 116.942 19.9756 116.942 21.5648C116.942 23.4031 115.059 24.0989 113.059 24.0989C111.059 24.0989 109.048 23.2786 108.303 21.422L105.642 22.7989C106.897 25.8786 109.558 26.9332 113.011 26.9332C116.777 26.9332 120.109 25.3219 120.109 21.5612C120.109 17.5441 116.825 16.625 113.305 16.1929L113.298 16.1965Z" fill="white"/>
<path d="M138.547 9.61611C135.894 9.61611 133.237 9.64174 130.576 9.64174V26.5121H133.765V21.5502H138.547C146.831 21.5502 146.809 9.61977 138.547 9.61977V9.61611ZM138.547 18.628H133.765V12.6555H138.547C142.603 12.6555 142.629 18.628 138.547 18.628Z" fill="white"/>
<path d="M156.413 9.30486C150.567 9.30486 147.719 13.7614 147.719 18.1959C147.719 22.6305 150.475 26.8966 156.413 26.8966C162.351 26.8966 165.034 22.5352 165.078 18.1739C165.126 13.7614 162.23 9.30852 156.413 9.30852V9.30486ZM156.413 23.9744C152.428 23.9744 150.937 21.0119 150.86 18.2435C150.787 15.3982 152.428 12.1941 156.413 12.1941C160.399 12.1941 161.992 15.3726 161.948 18.2179C161.9 20.9863 160.399 23.9744 156.413 23.9744Z" fill="white"/>
<path d="M175.053 17.8078L182.558 9.73696V9.63808H178.599L172.176 16.7714V9.63808H168.994V26.5084H172.176V19.0381L179.255 26.5084H183.19V26.3106L175.061 17.8078H175.053Z" fill="white"/>
<path d="M198.982 12.7214V9.64175H186.324V26.5121H198.982V23.3775H189.488V19.5655H198.637V16.603H189.488V12.7214H198.982Z" fill="white"/>
<path d="M212.88 20.5322C216.092 19.8804 217.156 17.5441 217.156 15.2298C217.156 12.3113 215.053 9.66372 211.075 9.63808C208.392 9.63808 205.716 9.61245 203.034 9.61245V26.5047H206.219V20.8654H209.284L214.216 26.5047H218.004V26.285L212.884 20.5285L212.88 20.5322ZM206.219 18.0055V12.6042H211.075C213.078 12.6042 213.97 13.9518 213.97 15.303C213.97 16.6543 213.1 18.0018 211.075 18.0018H206.219V18.0055Z" fill="white"/>
<path d="M17.7629 9.09246C12.8341 9.09246 8.84106 13.0803 8.84106 17.9982C8.84106 22.9161 12.8341 26.9002 17.7629 26.9002C22.6918 26.9002 26.6848 22.9124 26.6848 17.9982C26.6848 13.0839 22.6954 9.09246 17.7629 9.09246ZM20.6035 21.3744C19.7044 21.3744 18.7979 21.0302 18.2987 19.9426C18.541 23.3372 19.6897 23.7913 19.6897 23.7913H15.8361C15.8361 23.7913 16.9775 23.3372 17.2271 19.9573C16.7243 21.0302 15.8178 21.3744 14.9297 21.3744C13.513 21.3744 12.5405 20.3454 12.5405 18.8477C12.5405 17.35 13.6745 16.5078 15.0728 16.5078C15.4912 16.5078 15.8435 16.5883 16.405 16.8373L16.4747 16.7751C15.271 15.7937 15.1315 14.8599 15.1315 14.2814C15.1315 13.0693 16.2949 12.2051 17.7666 12.2051C19.2383 12.2051 20.4053 13.0693 20.4053 14.2814C20.4053 14.8599 20.2622 15.7937 19.0621 16.7751L19.1318 16.8373C19.6934 16.5883 20.0457 16.5078 20.4604 16.5078C21.8623 16.5078 22.989 17.3024 22.989 18.8477C22.989 20.393 22.0422 21.3744 20.6072 21.3744H20.6035Z" fill="#3E79D4"/>
<path d="M27.4555 27.6655C25.0223 30.0275 21.6972 31.4812 18.0456 31.4812C16.3243 31.4812 14.6691 31.1663 13.1534 30.5694V35.3262C14.7132 35.7693 16.35 36.0037 18.0456 36.0037C22.9561 36.0037 27.4115 34.0446 30.6558 30.8624L27.4555 27.6692V27.6655ZM18.0456 0C8.07774 0 0 8.05249 0 17.9945C0 22.5682 1.71024 26.7501 4.52515 29.9139V17.9908C4.53249 10.5572 10.588 4.51511 18.0419 4.51511C21.6936 4.51511 25.0186 5.96887 27.4519 8.33079L30.6521 5.13763C27.4078 1.95911 22.9561 0 18.0456 0Z" fill="#3E79D4"/>
</g>
<defs>
<clipPath id="clip0_364_1670">
<rect width="218" height="36" fill="white"/>
</clipPath>
</defs>
</svg>
