<svg width="65" height="53" viewBox="0 0 65 53" fill="none" xmlns="http://www.w3.org/2000/svg">
<path d="M62.8897 16.357L48.0102 9.93374C47.3804 9.66558 46.7193 9.59698 46.0895 9.69676V4.88245C46.0895 2.66238 44.2872 0.847656 42.0734 0.847656H23.3836C21.1698 0.847656 19.3676 2.65614 19.3676 4.88245V9.78407C18.6255 9.57204 17.8085 9.60322 17.0477 9.93374L2.16823 16.357C0.403393 17.1178 -0.413545 19.182 0.334794 20.9468L9.62668 42.7671L10.8614 45.6669L10.9051 45.7792C11.6597 47.5565 13.7114 48.3796 15.4762 47.6188L21.6874 44.9373C22.0304 45.7355 22.4607 46.4963 22.9658 47.1885L23.0157 47.2571C24.4874 49.2589 26.5017 50.7244 28.834 51.4915C28.8527 51.4915 28.8652 51.5102 28.8839 51.5102C30.0501 51.8906 31.2724 52.0902 32.5196 52.0902C33.7668 52.0902 34.9829 51.8906 36.1553 51.5102C36.174 51.5102 36.1865 51.4915 36.2114 51.4915C38.55 50.7244 40.558 49.2589 42.0297 47.2571L42.0796 47.1885C42.5848 46.4901 43.015 45.7293 43.358 44.9311L49.5817 47.6188C51.3466 48.3796 53.392 47.5565 54.1528 45.7792L54.1965 45.6732L55.4313 42.7671L64.7231 20.9468C65.4777 19.1757 64.6545 17.1178 62.8897 16.357ZM20.9204 4.88245C20.9204 3.51673 22.0304 2.4067 23.3899 2.4067H42.0796C43.4453 2.4067 44.5492 3.51673 44.5492 4.88245V36.0757C44.5492 36.7554 44.2748 37.3666 43.8382 37.8156L42.6846 32.0097C42.4788 30.987 42.1233 30.0079 41.6306 29.0787C41.6244 29.0538 41.6057 29.0289 41.5995 29.0101C40.9197 27.7691 40.003 26.7028 38.9116 25.8484C38.6373 25.6301 38.3504 25.4244 38.0573 25.2373C38.0822 24.8569 38.1446 24.4203 38.2693 23.9526C38.4252 23.3602 38.6747 22.7116 39.08 22.0568C39.6226 21.1713 40.4395 20.267 41.6493 19.4439C41.9611 19.2318 42.2854 19.0261 42.6471 18.8327C42.9402 18.6768 43.1023 18.3525 43.0462 18.0158C43.0026 17.7165 42.7906 17.4857 42.5162 17.3922C42.485 17.3797 42.4538 17.3672 42.4226 17.3548C42.3665 17.3423 41.8676 17.2487 41.138 17.2051C40.3148 17.1552 39.1861 17.1739 38.0386 17.467C38.0074 16.4755 38.2444 14.8603 39.9469 14.0059C40.2712 13.85 40.4333 13.4883 40.3647 13.1329C40.2961 12.7837 39.9968 12.5217 39.6413 12.4968C39.4979 12.4906 37.5584 12.3845 35.6564 12.9333C35.3945 11.8108 34.696 10.0834 32.8751 9.4099C32.8376 9.39119 32.8127 9.37872 32.7753 9.37248C32.7441 9.36625 32.7192 9.37248 32.688 9.36625C32.6318 9.36001 32.5757 9.3413 32.5258 9.3413C32.4759 9.3413 32.4136 9.34754 32.3637 9.36625C32.3325 9.36625 32.3076 9.36625 32.2764 9.37248C32.239 9.39119 32.2078 9.40366 32.1766 9.4099C30.3494 10.0834 29.651 11.8108 29.3953 12.9333C27.4933 12.3845 25.5476 12.4906 25.4104 12.4968C25.0549 12.5217 24.7556 12.7712 24.687 13.1329C24.6184 13.4821 24.7868 13.8376 25.1048 14.0059C26.8135 14.8665 27.0443 16.4755 27.0131 17.467C25.8843 17.1739 24.7743 17.1552 23.9511 17.1989C23.2028 17.2425 22.6914 17.3423 22.6291 17.3548C22.6103 17.3548 22.5917 17.3735 22.5667 17.3797C22.2736 17.467 22.0491 17.7102 22.0054 18.0158C21.9555 18.3463 22.1177 18.6706 22.4046 18.8327C22.7912 19.0448 23.1342 19.263 23.4585 19.4813C24.7556 20.3731 25.5912 21.3646 26.1213 22.3187C26.3832 22.7865 26.5703 23.2479 26.7013 23.6845C26.8759 24.252 26.9569 24.782 26.9881 25.2373C26.7013 25.4181 26.4269 25.6177 26.1587 25.8297C25.0549 26.6903 24.1257 27.7691 23.4397 29.0164C23.421 29.0413 23.4148 29.0663 23.4086 29.085C22.9159 30.0142 22.5605 30.9932 22.3547 32.016L21.2883 37.3666C21.0638 36.9924 20.9266 36.5559 20.9266 36.0819V4.88245H20.9204ZM23.1404 44.3137C22.9596 43.9021 22.7974 43.478 22.6727 43.0477C22.5979 42.7796 22.5293 42.5114 22.4731 42.2433C22.3297 41.5386 22.3172 40.784 22.3983 39.9982C22.4108 39.8673 22.4233 39.7426 22.442 39.6116L23.0718 38.988L24.2068 40.1292L25.7783 41.7132L26.6701 42.6112L26.3521 42.9292L23.7516 45.5422C23.5146 45.1493 23.315 44.7377 23.1342 44.3199L23.1404 44.3137ZM25.1547 18.7891C26.352 18.8639 27.7988 19.1882 28.8029 20.1985C29.0024 20.398 29.2768 20.4728 29.545 20.4042C29.8131 20.3419 30.0251 20.1423 30.1124 19.8742C30.1124 19.8492 30.7548 17.9347 32.5134 16.5877C34.2657 17.9347 34.9018 19.8555 34.9143 19.8742C35.0016 20.1361 35.2136 20.3419 35.4818 20.4042C35.7499 20.4666 36.0305 20.3855 36.2239 20.1985C37.2279 19.182 38.6747 18.8577 39.8907 18.7891C37.5771 20.7036 36.8101 22.9237 36.5731 24.4577C36.4297 24.4016 36.2987 24.333 36.1553 24.2831C36.1553 24.2831 36.1366 24.2831 36.1303 24.2769C35.8809 24.1834 35.619 24.1023 35.3571 24.0337C35.3384 23.5722 35.4568 23.3602 35.4818 23.329C35.7499 23.011 35.7312 22.537 35.4257 22.2439C35.1138 21.9446 34.6149 21.9508 34.3156 22.2689C34.2221 22.3749 33.8417 22.8239 33.7918 23.7156C33.6359 23.6969 33.48 23.6782 33.3116 23.6595V20.8408C33.3116 20.4042 32.9561 20.0488 32.5258 20.0488C32.0955 20.0488 31.7401 20.4042 31.7401 20.8408V23.6595C31.5842 23.6782 31.4283 23.6907 31.2599 23.7156C31.2038 22.8239 30.8296 22.3624 30.7361 22.2689C30.4367 21.9508 29.9254 21.9196 29.6136 22.219C29.3017 22.5183 29.2706 23.0047 29.5761 23.3165C29.5761 23.3165 29.7196 23.5286 29.7009 24.0275C29.439 24.096 29.1895 24.1771 28.9276 24.2707C28.9276 24.2707 28.9089 24.2707 28.9089 24.2769H28.9026C28.7592 24.333 28.6282 24.3954 28.4848 24.4515C28.2478 22.9174 27.4808 20.7036 25.1672 18.7828L25.1547 18.7891ZM32.5134 10.9876C33.6359 11.5177 34.0287 12.8211 34.1659 13.5445C33.5673 13.8688 33.0434 14.2866 32.6506 14.8354C32.6007 14.8291 32.557 14.8354 32.5196 14.8354C32.4697 14.8354 32.4323 14.8291 32.3887 14.8354C31.9895 14.2866 31.4595 13.8625 30.8608 13.5445C30.9917 12.8273 31.3846 11.524 32.5134 10.9876ZM36.4921 18.0532C36.3112 18.1468 36.1366 18.2528 35.9682 18.3713C35.5878 17.6354 34.9455 16.6314 33.9477 15.7334C34.6461 14.8229 36.068 14.3864 37.3713 14.2055C36.4983 15.4714 36.3735 16.9681 36.4983 18.0532H36.4921ZM31.0728 15.7209C30.075 16.6127 29.4265 17.6292 29.0523 18.3588C28.8777 18.2403 28.6968 18.1343 28.5285 18.0407C28.6532 16.9557 28.5285 15.459 27.6616 14.193C28.9588 14.3739 30.3806 14.8104 31.079 15.7209H31.0728ZM38.5812 40.123L37.6894 41.021L37.2217 41.4887L36.0555 40.3163L35.8622 40.123L34.3156 38.5702L33.9477 38.2022L33.6172 37.8717L33.9851 37.5038L37.2217 34.2485L40.8262 37.878L40.1277 38.5826L38.5812 40.1354V40.123ZM26.4393 40.123L24.8928 38.5702L24.1943 37.8655L27.7989 34.236L31.0978 37.5537L31.4033 37.8592L31.1227 38.1399L30.7049 38.5639L29.1583 40.1167L28.9338 40.3475L27.7989 41.4887L27.3436 41.0335L26.4393 40.123ZM39.9157 29.2908L37.2279 31.9973L36.5731 31.3362L35.5566 30.3073L33.6296 28.3678L36.0305 25.9544C36.4234 26.129 36.7976 26.3286 37.1593 26.5531C37.5522 26.7963 37.9201 27.0707 38.2693 27.37C38.9117 27.925 39.4729 28.5674 39.9344 29.2908H39.9281H39.9157ZM40.6765 30.7625C40.8823 31.2676 41.0382 31.7915 41.1504 32.3215L42.0173 36.6681L41.9549 36.7305L38.3504 33.1011H38.3442L40.6827 30.7563L40.6765 30.7625ZM36.1116 33.1135L35.6002 33.6311L33.0497 36.2004L32.5134 36.743L32.0706 36.294L29.52 33.7247L28.9089 33.1135L29.1521 32.8703L30.1686 31.8414L32.5071 29.4841L34.8831 31.8788L35.8996 32.9077L36.1054 33.1135H36.1116ZM32.5071 27.2453L30.68 25.4056C31.8835 25.1437 33.1245 25.15 34.3281 25.4056L32.5009 27.2453H32.5071ZM29.0024 25.9482L31.4033 28.3616L29.5076 30.2761L28.4911 31.305L27.8051 31.9973L25.1173 29.2908C25.585 28.5611 26.1525 27.9063 26.8073 27.3451C27.1565 27.0457 27.5245 26.7776 27.9173 26.5344C28.2666 26.3161 28.6345 26.1228 29.0149 25.9544H29.0087L29.0024 25.9482ZM26.6826 33.1198L23.0781 36.7492L23.0094 36.6806L23.8763 32.334C23.9761 31.8039 24.1444 31.2801 24.3502 30.775L26.6888 33.126L26.6826 33.1198ZM30.2871 41.2268L31.3846 40.123L32.214 39.2873L32.5134 38.988L32.8813 39.3559L33.6421 40.123L34.7147 41.2018L36.1179 42.6174L32.5134 46.2469L28.9089 42.6174L30.2871 41.233V41.2268ZM24.687 46.8518L27.7864 43.7337L31.3908 47.3632L28.9151 49.8576C27.2688 49.2402 25.822 48.2113 24.6932 46.858L24.687 46.8518ZM32.5071 48.4794L34.353 50.3378C33.137 50.5623 31.8773 50.5623 30.655 50.3378L32.5009 48.4794H32.5071ZM36.0992 49.8514L33.6234 47.3569L37.2279 43.7275L40.3273 46.8456C39.1861 48.1988 37.7455 49.2278 36.1054 49.8451L36.0992 49.8514ZM41.2502 45.536L38.6061 42.8794L38.3317 42.605L39.2422 41.6883L40.8012 40.123L41.9425 38.9693L42.5723 39.6054C42.5973 39.7675 42.6097 39.9234 42.6222 40.0793C42.6908 40.8277 42.6721 41.5511 42.5411 42.2433H42.5349C42.4788 42.5052 42.4164 42.7671 42.3415 43.029C42.2168 43.4656 42.0609 43.8834 41.8801 44.295C41.693 44.7253 41.4934 45.1431 41.2502 45.536ZM14.9586 46.3778C13.8735 46.8456 12.6138 46.3342 12.1461 45.2429L1.57578 20.4105C1.11431 19.3254 1.61943 18.0594 2.70453 17.5855L17.584 11.1623C18.1827 10.9003 18.8313 10.9502 19.3738 11.2184V36.0695C19.3738 37.3666 19.9849 38.514 20.9266 39.2561C20.7457 40.4036 20.752 41.5074 20.9578 42.5488C21.0326 42.923 21.1262 43.2972 21.2384 43.6589L14.9648 46.3654L14.9586 46.3778ZM63.4946 20.4167L52.9243 45.2491C52.4628 46.3404 51.1969 46.8518 50.1118 46.3841L43.8195 43.6651C43.9318 43.2972 44.0253 42.9292 44.1001 42.5551C44.2872 41.5885 44.306 40.5657 44.1688 39.5305C45.3225 38.8196 46.0957 37.5412 46.0957 36.0819V35.9447V32.2966V11.075C46.5447 10.9565 47.0311 10.9689 47.4864 11.1685L62.3659 17.5917C63.451 18.0594 63.9561 19.3254 63.4946 20.4167Z" fill="white"/>
</svg>
