<svg width="54" height="55" viewBox="0 0 54 55" fill="none" xmlns="http://www.w3.org/2000/svg">
<path d="M30.9344 46.2365L31.5082 46.5546C32.3563 46.0557 33.1732 45.5007 33.9527 44.8895C33.9652 44.8771 33.9839 44.8771 33.9964 44.8708C34.0276 44.8334 34.0588 44.796 34.0899 44.7586C34.6262 44.029 34.8445 43.1372 34.7073 42.2392L30.1611 12.3992C30.1112 12.0874 30.0177 11.7818 29.893 11.5012L31.4333 8.70112C32.0569 7.57238 33.485 7.15456 34.6075 7.77194L50.1418 16.2905C50.6906 16.5899 51.0834 17.0825 51.2581 17.6812C51.4327 18.2861 51.3641 18.9159 51.0647 19.4647L50.5159 20.4625C50.5783 20.5685 50.6469 20.6745 50.7093 20.7806C50.94 21.1797 51.1458 21.5788 51.3454 21.9841L52.3431 20.1632C52.8296 19.2714 52.9418 18.2424 52.6549 17.2634C52.3681 16.2905 51.7195 15.4861 50.834 14.9996L35.2997 6.48105C33.4663 5.47703 31.1527 6.15054 30.1362 7.9902L28.8952 10.2477C28.5397 9.96706 28.1344 9.75503 27.6791 9.63031C27.2239 9.50559 26.7562 9.48064 26.2885 9.55548L10.4985 11.9626C10.2241 12.4865 9.96845 13.0228 9.74395 13.5591L26.5067 11.0023C26.7749 10.9586 27.0368 10.9773 27.2987 11.0459C27.6792 11.1457 28.0034 11.3577 28.2466 11.6446C28.2466 11.894 28.3776 12.131 28.6021 12.262C28.6395 12.3742 28.6769 12.4927 28.6956 12.6112L33.2418 42.4512C33.3166 42.9563 33.1919 43.4677 32.8926 43.8793C32.587 44.2909 32.138 44.5653 31.6329 44.6401L13.2986 47.4339C12.2696 47.5898 11.2656 46.8415 11.1097 45.825L10.4798 41.6904C9.91232 41.3536 9.36357 40.9919 8.8335 40.6053L9.66288 46.0432C9.67535 46.1368 9.70032 46.2178 9.72526 46.3114C11.3654 47.3216 13.1302 48.1199 14.9948 48.6562L30.922 46.2303L30.9344 46.2365Z" fill="white"/>
<path d="M36.9523 45.1952C36.6529 45.744 36.1603 46.1431 35.5616 46.3177C35.2062 46.4175 34.8444 46.4299 34.4952 46.3676C34.0525 46.7417 33.6035 47.0972 33.1357 47.4402C33.3914 47.5711 33.6533 47.6772 33.9215 47.752C34.5888 47.9328 35.2934 47.9266 35.9732 47.7271C36.946 47.4402 37.7567 46.7916 38.2432 45.8999L45.6891 32.3237C45.6579 31.5567 45.5956 30.7897 45.4833 30.0226C45.4272 29.6297 45.6954 29.2556 46.0883 29.187C46.4811 29.1184 46.8615 29.3803 46.9364 29.7732C46.9488 29.8418 46.9613 29.9104 46.9738 29.979L50.1667 24.1606C49.9359 23.6056 49.6803 23.0631 49.3934 22.5205L36.9523 45.2014V45.1952Z" fill="white"/>
<path d="M8.04178 25.6201C7.94824 25.6887 7.84845 25.7386 7.72373 25.7635C7.33085 25.8321 6.95046 25.5702 6.87562 25.1773C6.31437 22.4771 6.25201 19.702 6.72596 16.9955L6.57006 15.9852C6.45157 15.1995 6.82574 14.4511 7.46182 14.0582C7.65514 13.472 7.87965 12.8921 8.1291 12.3184L7.96071 12.3433C6.11481 12.6239 4.84264 14.3576 5.12326 16.2035L8.41594 37.818C8.95848 38.3418 9.526 38.8345 10.1184 39.296L8.03554 25.6138L8.04178 25.6201Z" fill="white"/>
<path d="M16.13 34.9743C17.6329 34.7061 19.0361 33.858 19.5474 31.8874C20.1648 37.6371 18.3875 38.7472 18.3875 38.7472L24.8232 37.5872C24.8232 37.5872 22.7777 37.1694 21.3497 31.5818C22.5158 33.2282 24.131 33.5337 25.609 33.2718C27.9787 32.8478 29.2883 30.8272 28.8393 28.3265C28.3716 25.7385 26.2388 24.7532 23.9065 25.1711C23.2081 25.2958 22.6406 25.539 21.78 26.1189L21.6428 26.0379C23.3577 24.0361 23.3141 22.4334 23.1395 21.4605C22.7715 19.4338 20.5701 18.3362 18.1131 18.779C15.6623 19.2218 13.9661 21.0178 14.334 23.0445C14.5086 24.0174 15.0262 25.5328 17.3274 26.8112L17.2338 26.9359C16.2236 26.6864 15.6062 26.6615 14.914 26.7862C12.5754 27.2103 10.9291 28.8753 11.3968 31.4633C11.8458 33.964 13.7416 35.4108 16.1362 34.9743H16.13Z" fill="white"/>
<path fill-rule="evenodd" clip-rule="evenodd" d="M31.5083 46.5483C28.3278 48.4254 24.6921 49.4918 20.8195 49.4918C18.8114 49.4918 16.8595 49.1987 15.0074 48.6624L13.5357 48.8869C13.0679 48.9555 12.6002 48.9305 12.145 48.812C10.9352 48.4878 10.0184 47.5212 9.73782 46.3176C9.0269 45.8811 8.34717 45.4009 7.68614 44.8895C7.37433 44.6463 6.92533 44.7024 6.67588 45.0018C6.4202 45.3073 6.45137 45.7563 6.74447 46.0182C10.5735 49.4357 15.4751 51.4936 20.8195 51.4936C25.3719 51.4936 29.6062 49.9969 33.1296 47.4401C33.1109 47.4276 33.0923 47.4214 33.0735 47.4151L31.5083 46.5546V46.5483Z" fill="white"/>
<path fill-rule="evenodd" clip-rule="evenodd" d="M12.145 48.8123C12.6002 48.9371 13.0679 48.962 13.5356 48.8872L15.0074 48.6627C13.1427 48.1201 11.3779 47.3281 9.73779 46.3179C10.0247 47.5214 10.9352 48.4881 12.145 48.8123Z" fill="white"/>
<path fill-rule="evenodd" clip-rule="evenodd" d="M33.778 46.1244L32.9985 45.7004C33.3789 45.4884 33.7157 45.2077 33.9963 44.8647C33.9838 44.871 33.9651 44.8772 33.9526 44.8835C33.1731 45.4946 32.3562 46.0496 31.5081 46.5485L33.0733 47.4091C33.0733 47.4091 33.1107 47.4278 33.1294 47.434C33.5972 47.0973 34.0462 46.7418 34.4889 46.3614C34.2457 46.3178 34.0025 46.2429 33.778 46.1182V46.1244Z" fill="white"/>
<path fill-rule="evenodd" clip-rule="evenodd" d="M10.9039 11.2457C13.3547 6.99889 17.1089 3.92446 21.4617 2.17834C21.8234 2.02867 22.0042 1.61708 21.8733 1.24291C21.7361 0.874979 21.3308 0.675422 20.9566 0.793909C16.0799 2.3966 11.8518 5.62069 9.17648 10.2479C8.7836 10.9277 8.44058 11.6199 8.13501 12.3246L10.511 11.9629C10.6357 11.7197 10.7667 11.4827 10.9039 11.2457Z" fill="white"/>
<path fill-rule="evenodd" clip-rule="evenodd" d="M8.18491 13.7963L9.75643 13.5593C9.98717 13.023 10.2366 12.4867 10.511 11.9629L8.13501 12.3246C7.88556 12.8983 7.66109 13.4783 7.46777 14.0645C7.6798 13.9335 7.92299 13.84 8.18491 13.8026V13.7963Z" fill="white"/>
<path fill-rule="evenodd" clip-rule="evenodd" d="M6.8753 25.1772C6.95013 25.5701 7.33053 25.832 7.72341 25.7634C7.8419 25.7447 7.94792 25.6886 8.04146 25.62L6.72564 16.9954C6.25169 19.7019 6.31405 22.4769 6.8753 25.1772Z" fill="white"/>
<path fill-rule="evenodd" clip-rule="evenodd" d="M4.82382 33.2282C2.37301 28.9813 1.58105 24.1982 2.24832 19.5523C2.29821 19.1594 2.03627 18.7977 1.64339 18.7291C1.25051 18.6605 0.882589 18.91 0.795283 19.2966C-0.252391 24.3229 0.421109 29.5987 3.09018 34.226C4.58063 36.8015 6.55124 38.9405 8.84614 40.6118L8.42209 37.8242C7.03766 36.4959 5.8216 34.9618 4.82382 33.2282Z" fill="white"/>
<path fill-rule="evenodd" clip-rule="evenodd" d="M10.1307 39.3022C9.53825 38.8407 8.97077 38.3481 8.42822 37.8242L8.85228 40.6118C9.38235 40.9984 9.93114 41.3601 10.4986 41.6969L10.1307 39.3022Z" fill="white"/>
<path fill-rule="evenodd" clip-rule="evenodd" d="M18.8301 10.0235C19.0858 10.329 19.541 10.3789 19.8529 10.1295C23.5447 7.22967 28.0846 5.52096 32.9862 5.52096C37.8878 5.52096 42.4277 7.22967 46.1195 10.1295C46.4314 10.3727 46.8804 10.3228 47.1298 10.0172C47.3855 9.71166 47.3543 9.26889 47.0612 9.00074C43.2322 5.58332 38.3306 3.52539 32.9862 3.52539C27.6418 3.52539 22.734 5.58332 18.9112 9.00074C18.6119 9.26265 18.5744 9.7179 18.8301 10.0297V10.0235Z" fill="white"/>
<path fill-rule="evenodd" clip-rule="evenodd" d="M42.9082 43.6984C40.4574 47.9453 36.7032 51.0197 32.3504 52.7658C31.9887 52.9155 31.8078 53.3271 31.9388 53.7012C32.076 54.0692 32.4813 54.2687 32.8555 54.1502C37.7322 52.5475 41.9603 49.3234 44.6356 44.6962C47.2735 40.1314 47.9595 34.9366 46.9742 29.9727L45.6895 32.3175C45.8392 36.2213 44.9599 40.1438 42.9082 43.6922V43.6984Z" fill="white"/>
<path fill-rule="evenodd" clip-rule="evenodd" d="M46.0821 29.1872C45.6892 29.2558 45.421 29.6299 45.4771 30.0228C45.5894 30.7899 45.6518 31.5569 45.683 32.324L46.9676 29.9792C46.9551 29.9106 46.9427 29.842 46.9302 29.7734C46.8553 29.3805 46.475 29.1186 46.0821 29.1872Z" fill="white"/>
<path fill-rule="evenodd" clip-rule="evenodd" d="M51.3515 21.9844L50.1604 24.1546C51.6758 27.7715 52.1061 31.6567 51.5635 35.4545C51.5136 35.8474 51.7756 36.209 52.1685 36.2776C52.5551 36.3462 52.9293 36.0968 53.0166 35.7102C53.9769 31.1141 53.4905 26.3123 51.3578 21.9844H51.3515Z" fill="white"/>
<path fill-rule="evenodd" clip-rule="evenodd" d="M50.7156 20.7807C50.6533 20.6747 50.5847 20.5687 50.5223 20.4626L49.3936 22.5206C49.6742 23.0569 49.9361 23.6057 50.1668 24.1607L51.358 21.9905C51.1584 21.5852 50.9526 21.1798 50.7219 20.7869L50.7156 20.7807Z" fill="white"/>
</svg>
