<svg width="53" height="59" viewBox="0 0 53 59" fill="none" xmlns="http://www.w3.org/2000/svg">
<path d="M50.6066 11.2001L35.1596 4.57734C33.3325 3.79158 31.1997 4.6397 30.4202 6.46689L29.9088 7.66424L29.4161 7.45221C27.5827 6.66645 25.4562 7.51457 24.6767 9.34176L22.7746 13.7819C22.1884 13.7258 21.5773 13.8069 20.9973 14.0563L19.1951 14.8296V9.37294H22.1947C22.363 9.37294 22.519 9.27317 22.5938 9.1235C22.6686 8.97383 22.6499 8.79298 22.5501 8.65579L16.1643 0.180849C16.077 0.0685977 15.946 0 15.8089 0C15.6717 0 15.5345 0.0623616 15.4534 0.180849L9.07381 8.65579C8.9678 8.79298 8.95532 8.97383 9.03015 9.1235C9.10499 9.27317 9.26088 9.37294 9.42926 9.37294H12.4289V17.7294L5.55039 20.6791C3.71696 21.4649 2.86883 23.5914 3.64835 25.4123L3.86038 25.9112L2.67551 26.4164C0.848316 27.2021 -0.00603018 29.3286 0.773489 31.1496L10.4208 53.6497L11.7055 56.643L11.7554 56.7553C12.5411 58.5825 14.6676 59.4368 16.5011 58.6511L31.948 52.0283C33.7815 51.2425 34.6296 49.116 33.8438 47.2825L33.6318 46.7899L34.8167 46.2848C36.0078 45.7734 36.7811 44.6945 36.9619 43.4972C37.9909 43.8776 39.1009 43.7591 39.9989 43.2477V47.4197H36.9993C36.8309 47.4197 36.675 47.5195 36.6002 47.6692C36.5254 47.8189 36.5441 47.9997 36.6439 48.1369L43.0297 56.6118C43.117 56.7241 43.2479 56.7927 43.3851 56.7927C43.5223 56.7927 43.6595 56.7303 43.7406 56.6118L50.1202 48.1369C50.2262 47.9997 50.2387 47.8189 50.1638 47.6692C50.089 47.5195 49.9331 47.4197 49.7647 47.4197H46.7651V29.3411L52.5086 15.9396C53.2882 14.1124 52.44 11.9921 50.6066 11.2064V11.2001ZM25.9613 9.88431C26.4415 8.7618 27.7511 8.2442 28.8736 8.72438L29.3662 8.93641L30.6447 9.48519L44.3206 15.3472C45.4493 15.8336 45.9731 17.137 45.493 18.2595L42.6243 24.9571L40.0051 31.0685L36.12 40.1359L26.8157 18.4341L26.0611 16.6692L25.7493 15.9396C25.4125 15.1539 24.8263 14.5552 24.1279 14.181L25.9738 9.88431H25.9613ZM4.93299 24.8573C4.45281 23.7348 4.97665 22.4315 6.1054 21.945L12.4351 19.2323L19.2013 16.3325L21.5461 15.3285C21.7519 15.2412 21.9702 15.185 22.1822 15.1601C22.6686 15.104 23.155 15.2162 23.5666 15.4657C23.9533 15.6964 24.2713 16.0456 24.4646 16.4884L25.3003 18.4278L26.0549 20.1927L35.0474 41.1711L35.3592 41.8945L35.4403 42.0878C35.5588 42.3622 35.6149 42.6491 35.6211 42.9297C35.6336 43.8028 35.1285 44.6446 34.2741 45.0063L33.0892 45.5115L32.9333 45.1498L31.156 41.009L30.364 39.1568L24.1404 24.6391L23.3858 22.8742L22.8682 21.6706C22.5876 21.0096 22.1261 20.4795 21.5711 20.1116C21.1844 19.8497 20.7479 19.6688 20.2927 19.5691C19.9372 19.4942 19.5693 19.4693 19.2013 19.5067C18.8396 19.5441 18.4779 19.6314 18.1287 19.7811L12.4351 22.2194L5.14502 25.3437L4.93299 24.8448V24.8573ZM32.5654 47.8313C33.0456 48.9538 32.528 50.2697 31.3992 50.7498L15.9523 57.3726C14.8235 57.8591 13.514 57.329 13.0338 56.2065L2.05814 30.6008C1.57795 29.4783 2.10179 28.175 3.23054 27.6885L4.4154 27.1834L5.69381 26.6346L12.4351 23.741L18.6775 21.0657C18.8521 20.9909 19.0267 20.9473 19.2013 20.9161C19.3759 20.8849 19.5505 20.8787 19.7252 20.8911C20.1991 20.9285 20.6481 21.1156 21.0098 21.4274C21.253 21.6395 21.4588 21.9076 21.596 22.2257L22.6312 24.6453L23.3858 26.4101L28.5119 38.3711L29.3039 40.2232L31.3119 44.9066L31.8108 46.0665L32.0229 46.5654L32.3534 47.3387L32.5654 47.8313ZM51.2302 15.3846L46.7589 25.8115L40.2546 40.9903C40.186 41.1524 40.0987 41.3021 39.9989 41.433C39.4002 42.2437 38.3027 42.568 37.3361 42.1564L36.8559 41.9506C36.8559 41.9506 36.8559 41.9319 36.8496 41.9194L37.1178 41.2958L39.9927 34.5857L44.1272 24.9446L46.7651 18.7958C47.5447 16.9686 46.6965 14.8483 44.8631 14.0625L31.1872 8.20055L31.6986 7.0032C32.1788 5.8807 33.4884 5.36309 34.6109 5.84328L50.0578 12.4661C51.1866 12.9525 51.7104 14.2559 51.2302 15.3784V15.3846Z" fill="white"/>
<path d="M23.8411 37.1052C23.6727 36.7061 23.4545 36.3756 23.205 36.1012C22.6874 35.5337 22.0326 35.2343 21.3092 35.172C20.7916 35.1283 20.2428 35.2094 19.7003 35.3965C19.6067 35.4277 19.507 35.4651 19.4134 35.5087C18.8896 35.7332 18.4905 36.0201 17.9168 36.6312L17.7983 36.5938C18.7836 34.723 18.4655 33.4695 18.16 32.7461C18.135 32.6838 18.1038 32.6276 18.0727 32.5715C17.7858 32.0165 17.3181 31.6174 16.7444 31.3929C16.3203 31.2245 15.8339 31.1497 15.3288 31.1746C14.8174 31.1996 14.2811 31.318 13.751 31.5425C13.2708 31.7483 12.8468 32.0165 12.4975 32.3283C11.4997 33.2076 11.0757 34.4361 11.5496 35.5586C11.8053 36.1635 12.3229 37.0241 13.6575 37.6415C13.9256 37.7662 14.225 37.8785 14.5679 37.9783L14.518 38.0905C14.2748 38.0905 14.069 38.0905 13.8757 38.103C13.4018 38.1342 13.0463 38.2215 12.6784 38.3836C12.0797 38.6393 11.5683 38.9948 11.1879 39.4313C10.7389 39.9426 10.477 40.5663 10.4583 41.2647C10.4521 41.7075 10.5394 42.1814 10.7514 42.6741C10.9759 43.1979 11.2753 43.6345 11.6245 43.9837C12.1546 44.5013 12.8031 44.8068 13.514 44.863C14.0192 44.9004 14.5492 44.8131 15.0918 44.5886C16.2205 44.1084 17.1684 43.1979 17.2183 41.564C18.7212 45.9605 17.5301 47.1392 17.5301 47.1392L22.3631 45.0875C22.3631 45.0875 20.6856 45.1249 18.5715 41.0028C19.27 41.6326 20.0059 41.8759 20.7168 41.8821C21.2344 41.8821 21.7395 41.7636 22.2072 41.564C22.413 41.4767 22.6063 41.3707 22.7872 41.2585C23.8785 40.5413 24.3712 39.3377 24.128 38.0094C24.0718 37.7163 23.9908 37.417 23.8598 37.1177L23.8411 37.1052Z" fill="white"/>
</svg>
