<svg width="54" height="49" viewBox="0 0 54 49" fill="none" xmlns="http://www.w3.org/2000/svg">
<path d="M53.4562 39.0773V5.1713C53.4562 2.42115 51.2112 0.182373 48.4548 0.182373H25.1752C22.4188 0.182373 20.1738 2.42115 20.1738 5.1713V43.7606C20.1738 46.517 22.4188 48.762 25.1752 48.762H48.4548C51.2112 48.762 53.4562 46.517 53.4562 43.7606V43.5923V39.0835V39.0773ZM51.5292 43.7606C51.5292 45.4569 50.151 46.8413 48.4486 46.8413H25.169C23.4665 46.8413 22.0883 45.4569 22.0883 43.7606V5.1713C22.0883 3.4813 23.4665 2.10311 25.169 2.10311H48.4486C50.151 2.10311 51.5292 3.47506 51.5292 5.1713V43.7606Z" fill="white"/>
<path d="M25.9172 0.182373V2.10935H1.5463C1.01623 2.10935 0.585938 1.67905 0.585938 1.14898C0.585938 0.618904 1.01623 0.188609 1.5463 0.188609H25.9172V0.182373Z" fill="white"/>
<path d="M22.0944 5.68262V7.60959H4.67058C4.14051 7.60959 3.71021 7.1793 3.71021 6.64922C3.71021 6.11915 4.14051 5.68885 4.67058 5.68885H22.0944V5.68262Z" fill="white"/>
<path d="M22.0944 11.189V13.1159H10.3393C9.80921 13.1159 9.37891 12.6856 9.37891 12.1556C9.37891 11.6255 9.80921 11.1952 10.3393 11.1952H22.0944V11.189Z" fill="white"/>
<path d="M46.7399 25.8752C46.7211 28.7252 44.9064 30.6771 42.175 30.6584C40.4663 30.6459 38.7513 29.9786 37.8159 27.902C38.2337 34.3689 40.4039 35.2482 40.4039 35.2482L33.0827 35.1983C33.0827 35.1983 35.2591 34.3502 35.7767 27.9082C34.8038 29.9474 33.0764 30.596 31.3927 30.5835C28.6986 30.5648 26.8652 28.588 26.8839 25.738C26.9026 22.7946 29.0728 21.2979 31.7294 21.3166C32.5277 21.3166 33.1949 21.4787 34.2613 21.9589L34.3923 21.8404C32.1161 19.9571 31.8604 18.1798 31.8666 17.076C31.8853 14.7686 34.1054 13.1348 36.9054 13.1535C39.693 13.1722 41.9068 14.8372 41.8944 17.1446C41.8881 18.2484 41.6013 20.0257 39.3064 21.8779L39.4373 21.9963C40.5099 21.5286 41.1772 21.3852 41.9692 21.3852C44.632 21.4039 46.7648 22.9318 46.7461 25.8752H46.7399Z" fill="white"/>
</svg>
