<svg width="59" height="59" viewBox="0 0 59 59" fill="none" xmlns="http://www.w3.org/2000/svg">
<path d="M58.0688 7.60191C57.4078 6.51682 56.3663 5.75601 55.1378 5.46291L33.6168 0.237011C31.0787 -0.380368 28.5032 1.19114 27.8796 3.73549L27.1187 6.86605C26.6011 6.64154 26.0399 6.51682 25.4537 6.51682C24.8675 6.51682 24.2938 6.63531 23.7512 6.87852L2.52957 16.2016C0.390572 17.1432 -0.582268 19.6439 0.359391 21.7829L15.5507 56.3125C16.2242 57.8466 17.7458 58.8444 19.4296 58.8444C20.0158 58.8444 20.5895 58.7259 21.132 58.4827L41.2686 49.6274L44.2308 50.3508C44.6049 50.4381 44.9853 50.488 45.3595 50.488C46.2201 50.488 47.0744 50.251 47.829 49.7957C48.9141 49.1347 49.6749 48.0933 49.9743 46.8585L58.6425 11.2126C58.9418 9.97789 58.7423 8.69948 58.075 7.61438L58.0688 7.60191ZM20.3962 56.8052C19.2051 57.329 17.7458 56.7491 17.2282 55.5704L2.03692 21.0471C1.50061 19.8373 2.05563 18.4154 3.27168 17.8791L24.4871 8.54357C24.7927 8.40638 25.1232 8.33778 25.4537 8.33778C25.9401 8.33778 26.4078 8.48745 26.7945 8.74936C26.8818 9.0487 27.1063 9.29815 27.4305 9.37922C27.5179 9.50394 27.5927 9.6349 27.655 9.77209L42.8463 44.3017C43.102 44.8879 43.1207 45.5427 42.8837 46.1414C42.653 46.74 42.1978 47.214 41.6116 47.4697L20.3962 56.8052ZM56.859 10.7699L48.1907 46.4158C48.0099 47.1766 47.5422 47.8189 46.8749 48.2242C46.2076 48.6296 45.4219 48.7543 44.661 48.5672L43.5822 48.3053C44.0125 47.8875 44.3617 47.3824 44.5862 46.8086C44.9978 45.7547 44.9729 44.6073 44.5176 43.5721L29.3263 9.04246C29.1642 8.68077 28.9522 8.34401 28.709 8.05092L29.6569 4.17203C30.0435 2.60675 31.6275 1.64015 33.1865 2.01432L54.7075 7.24021C55.4621 7.42106 56.1044 7.88878 56.5097 8.55604C56.9213 9.22331 57.0398 10.0153 56.859 10.7699Z" fill="white"/>
<path d="M9.93173 22.2068L8.37893 21.6019L8.98384 20.0491C9.16469 19.5814 8.93395 19.0451 8.46 18.8643C7.99229 18.6834 7.46222 18.9141 7.27513 19.3881L6.66399 20.9658L6.43949 20.4607C6.23369 19.9992 5.69738 19.7872 5.23591 19.993C4.77443 20.1988 4.5624 20.7351 4.7682 21.1966L6.23993 24.5392C6.3896 24.8821 6.72635 25.0879 7.07558 25.0879C7.2003 25.0879 7.32502 25.063 7.44351 25.0069C7.90498 24.8011 8.11701 24.2648 7.91122 23.8033L7.68672 23.2982L9.26447 23.9093C9.37048 23.953 9.48273 23.9717 9.59498 23.9717C9.96292 23.9717 10.3059 23.7472 10.4493 23.3855C10.6302 22.9178 10.3994 22.3814 9.9255 22.2006L9.93173 22.2068Z" fill="white"/>
<path d="M39.6035 43.6719L38.0507 43.067L38.6556 41.5142C38.8365 41.0465 38.6057 40.5102 38.1318 40.3293C37.6641 40.1485 37.1277 40.3792 36.9469 40.8532L36.3295 42.4309L36.105 41.9258C35.9055 41.4643 35.3629 41.2523 34.9014 41.4581C34.44 41.6639 34.2279 42.2002 34.4337 42.6617L35.9055 46.0042C36.0551 46.3472 36.3919 46.553 36.7411 46.553C36.8658 46.553 36.9905 46.5281 37.109 46.4782C37.5705 46.2724 37.7825 45.7361 37.5767 45.2746L37.3522 44.7695L38.93 45.3806C39.036 45.4243 39.1483 45.443 39.2605 45.443C39.6284 45.443 39.9714 45.2185 40.1149 44.8568C40.2957 44.3891 40.065 43.8528 39.591 43.6719H39.6035Z" fill="white"/>
<path d="M12.8816 38.1529C14.2411 41.0278 16.9912 42.1503 19.7413 40.8532C21.4625 40.0425 22.8844 38.5583 22.8594 36.0139C25.4724 42.7552 23.6888 44.6635 23.6888 44.6635L31.0724 41.1775C31.0724 41.1775 28.472 41.3396 24.9298 35.066C26.8693 36.675 28.921 36.519 30.6172 35.7146C33.3362 34.4299 34.2654 31.5675 32.9059 28.6927C31.5027 25.7243 28.6092 25.2254 25.9276 26.4913C25.1232 26.8717 24.5182 27.3457 23.6701 28.331L23.483 28.2749C24.8987 25.3002 24.3249 23.3795 23.8011 22.2632C22.7035 19.9309 19.6852 19.326 16.8602 20.6605C14.0477 21.9888 12.5822 24.7078 13.686 27.0401C14.2099 28.1564 15.3324 29.8152 18.5253 30.6134L18.4505 30.7943C17.1471 30.8254 16.3988 30.9876 15.6068 31.368C12.919 32.6402 11.4784 35.1845 12.8816 38.1529Z" fill="white"/>
</svg>
